# xmcd
#
# Track frame offsets: 
#        150
#        13412
#        26882
#        48975
#        68812
#        82020
#        99142
#        121265
#        140557
#
# Disc length: 2087 seconds
#
# Revision: 0
# Processed by: cddbd v1.5.2PL0 Copyright (c) Steve Scherf et al.
# Submitted via: ExactAudioCopy v0.99pb5
#
DISCID=77082509
DTITLE=Pamela Nelson - Pamela Nelson
DYEAR=1995
DGENRE=Contemporary Christian
TTITLE0=Look What God Is Doing
TTITLE1=Don't Let Me Waste My Time
TTITLE2=I am Not Ashamed
TTITLE3=Without A Vision
TTITLE4=Powerful Name
TTITLE5=Shower Them With Prayer
TTITLE6=Goodbye To Me
TTITLE7=Two Important Men In My Life
TTITLE8=I Am Pressing On
EXTD=
EXTT0=
EXTT1=
EXTT2=
EXTT3=
EXTT4=
EXTT5=
EXTT6=
EXTT7=
EXTT8=
PLAYORDER=
